# xmcd
#
# Track frame offsets: 
#        150
#        13137
#        26031
#        40825
#        55434
#        70773
#        84954
#        102990
#        122261
#        144839
#        159065
#        175896
#        197734
#
# Disc length: 2827 seconds
#
# Revision: 0
# Processed by: cddbd v1.5.2PL0 Copyright (c) Steve Scherf et al.
# Submitted via: ExactAudioCopyFreeDBPlugin 1.0
#
DISCID=9e0b090d
DTITLE=Jim Byrnes - I Hear The Wind In The Wires
DYEAR=2012
DGENRE=Blues
TTITLE0=I'm Movin' On
TTITLE1=City Lights
TTITLE2=Above And Beyond
TTITLE3=Big Blue Diamonds
TTITLE4=Pickin' Wild Mountain Berries
TTITLE5=Ribbon Of Darkness
TTITLE6=The Bargain Store
TTITLE7=Don't Let her Know
TTITLE8=Big Iron
TTITLE9=Sensitive Man
TTITLE10=Harbor Of Love
TTITLE11=House Where Nobody Lives
TTITLE12=Honky Tonk Blues
EXTD=
EXTT0=
EXTT1=
EXTT2=
EXTT3=
EXTT4=
EXTT5=
EXTT6=
EXTT7=
EXTT8=
EXTT9=
EXTT10=
EXTT11=
EXTT12=
PLAYORDER=
